# AST/ASF file generated using VICON BodyLanguage
# -----------------------------------------------
:version 1.10
:name VICON
:units
  mass 1.0
  length 0.45
  angle deg
:documentation
   .ast/.asf automatically generated from VICON data using
   VICON BodyBuilder and BodyLanguage model FoxedUp or BRILLIANT.MOD
:root
   order TX TY TZ RX RY RZ
   axis XYZ
   position 0 0 0  
   orientation 0 0 0 
:bonedata
  begin
     id 1 
     name lhipjoint
     direction 0.604623 -0.733026 0.311616 
     length 2.56391 
     axis 0 0 0  XYZ
  end
  begin
     id 2 
     name lfemur
     direction 0.34202 -0.939693 0  
     length 7.75596  
     axis 0 0 20  XYZ
    dof rx ry rz
    limits (-160.0 20.0)
           (-70.0 70.0)
           (-60.0 70.0)
  end
  begin
     id 3 
     name ltibia
     direction 0.34202 -0.939693 0   
     length 7.63697   
     axis 0 0 20   XYZ
    dof rx
    limits (-10.0 170.0)
  end
  begin
     id 4 
     name lfoot
     direction 0.048038 -0.131983 0.990087   
     length 1.94388   
     axis -90 7.62852e-016 20   XYZ
    dof rx rz
    limits (-45.0 90.0)
           (-70.0 20.0)
  end
  begin
     id 5 
     name ltoes
     direction 1.53565e-011 -4.21929e-011 1   
     length 0.984801   
     axis -90 7.62852e-016 20   XYZ
    dof rx
    limits (-90.0 20.0)
  end
  begin
     id 6 
     name rhipjoint
     direction -0.609162 -0.729836 0.31026   
     length 2.57511  
     axis 0 0 0  XYZ 
  end
  begin
     id 7 
     name rfemur
     direction -0.34202 -0.939693 0   
     length 7.60772   
     axis 0 0 -20   XYZ
    dof rx ry rz
    limits (-160.0 20.0)
           (-70.0 70.0)
           (-70.0 60.0)
  end
  begin
     id 8 
     name rtibia
     direction -0.34202 -0.939693 0   
     length 7.68497   
     axis 0 0 -20   XYZ
    dof rx
    limits (-10.0 170.0)
 end
 begin
     id 9 
     name rfoot
     direction -0.0969806 -0.266452 0.958957   
     length 2.01398  
     axis -90 -7.62852e-016 -20   XYZ
    dof rx rz
    limits (-45.0 90.0)
           (-20.0 70.0)
  end
  begin
     id 10 
     name rtoes
     direction -1.53552e-011 -4.21869e-011 1   
     length 1.00896   
     axis -90 -7.62852e-016 -20   XYZ
    dof rx
    limits (-90.0 20.0)
  end
  begin
     id 11 
     name lowerback
     direction 0.0305179 0.993923 -0.10576   
     length 2.09077   
     axis 0 0 0   XYZ
    dof rx ry rz
    limits (-20.0 45.0)
           (-30.0 30.0)
           (-30.0 30.0)
  end
  begin
     id 12 
     name upperback
     direction -0.0137909 0.999867 0.00873764   
     length 2.08918   
     axis 0 0 0   XYZ
    dof rx ry rz
    limits (-20.0 45.0)
           (-30.0 30.0)
           (-30.0 30.0)
  end
  begin
     id 13 
     name thorax
     direction -0.0278536 0.997917 0.0581839   
     length 2.11939   
     axis 0 0 0   XYZ
    dof rx ry rz
    limits (-20.0 45.0)
           (-30.0 30.0)
           (-30.0 30.0)
  end
  begin
     id 14 
     name lowerneck
     direction 0.0138689 0.999837 -0.0116016   
     length 1.74353   
     axis 0 0 0   XYZ
    dof rx ry rz
    limits (-20.0 45.0)
           (-30.0 30.0)
           (-30.0 30.0)
  end
  begin
     id 15 
     name upperneck
     direction -0.00992078 0.999667 0.0238149   
     length 1.71734   
     axis 0 0 0   XYZ
    dof rx ry rz
    limits (-20.0 45.0)
           (-30.0 30.0)
           (-30.0 30.0)
  end
  begin
     id 16
     name head
     direction -0.00530555 0.999941 0.00944937  
     length 1.78249  
     axis 0 0 0   XYZ
    dof rx ry rz
    limits (-20.0 45.0)
           (-30.0 30.0)
           (-30.0 30.0)
  end
  begin
     id 17 
     name lclavicle
     direction 0.929165 0.366864 0.0454227  
     length 3.65686  
     axis 0 0 0   XYZ
    dof ry rz
    limits (-20.0 10.0)
           (0.0 20.0)
  end
  begin
     id 18 
     name lhumerus
     direction 1 -4.4897e-011 3.05413e-018   
     length 5.15218   
     axis -180 -30 -90   XYZ
    dof rx ry rz
    limits (-60.0 90.0)
           (-90.0 90.0)
           (-90.0 90.0)
  end
  begin
     id 19
     name lradius
     direction 1 -4.48963e-011 5.40022e-027   
     length 3.49459   
     axis -180 -30 -90   XYZ
    dof rx
    limits (-10.0 170.0)
  end
  begin
     id 20
     name lwrist
     direction 1 -4.48966e-011 9.79369e-027   
     length 1.7473   
     axis -4.67603e-015 90 90   XYZ
    dof ry
    limits (-180.0 0.0)
 end
  begin
     id 21 
     name lhand
     direction 1 -4.48996e-011 1.9593e-026   
     length 0.512466   
     axis -1.24987e-014 90 90   XYZ
    dof rx rz
    limits (-90.0 90.0)
           (-45.0 45.0)
  end
  begin
     id 22 
     name lfingers
     direction 1 -4.48931e-011 3.91616e-026   
     length 0.413163   
     axis -2.49979e-014 90 90   XYZ
    dof rx
    limits (0.0 90.0)
  end
  begin
     id 23
     name lthumb
     direction 0.707107 -6.34959e-011 0.707107   
     length 0.593222   
     axis -90 45 5.69224e-014   XYZ
    dof rx rz
    limits (-45.0 45.0)
           (-45.0 45.0)
  end
  begin
     id 24 
     name rclavicle
     direction -0.951469 0.307727 0.00346571   
     length 3.42864  
     axis 0 0 0   XYZ 
    dof ry rz
    limits (-10.0 20.0)
           (-20.0 0.0)
  end
  begin
     id 25 
     name rhumerus
     direction -1 -4.48967e-011 2.58643e-027  
     length 5.44344   
     axis -180 30 90   XYZ
    dof rx ry rz
    limits (-90.0 60.0)
           (-90.0 90.0)
           (-90.0 90.0)
  end
  begin
     id 26 
     name rradius
     direction -1 -4.48973e-011 4.26485e-028   
     length 3.58403   
     axis -180 30 90   XYZ
    dof rx
    limits (-10.0 170.0)
  end
  begin
     id 27 
     name rwrist
     direction -1 -4.48962e-011 9.79331e-027   
     length 1.79202   
     axis -4.67603e-015 -90 -90   XYZ
    dof ry
    limits (-180.0 0.0)
  end
  begin
     id 28
     name rhand
     direction -1 -4.48975e-011 1.95891e-026   
     length 0.34249   
     axis -1.24987e-014 -90 -90   XYZ
    dof rx rz
    limits (-90.0 90.0)
           (-45.0 45.0)
  end
  begin
     id 29
     name rfingers
     direction -1 -4.48893e-011 3.9147e-026   
     length 0.276124   
     axis -2.49979e-014 -90 -90   XYZ
    dof rx
    limits (0.0 90.0)
  end
  begin
     id 30
     name rthumb
     direction -0.707107 -6.34898e-011 0.707107   
     length 0.39646   
     axis -90 -45 -5.69224e-014   XYZ
    dof rx rz
    limits (-45.0 45.0)
           (-45.0 45.0)
  end
:hierarchy
  begin
    root lhipjoint rhipjoint lowerback
    lhipjoint lfemur
    lfemur ltibia
    ltibia lfoot
    lfoot ltoes
    rhipjoint rfemur
    rfemur rtibia
    rtibia rfoot
    rfoot rtoes
    lowerback upperback
    upperback thorax
    thorax lowerneck lclavicle rclavicle
    lowerneck upperneck
    upperneck head
    lclavicle lhumerus
    lhumerus lradius
    lradius lwrist
    lwrist lhand lthumb
    lhand lfingers
    rclavicle rhumerus
    rhumerus rradius
    rradius rwrist
    rwrist rhand rthumb
    rhand rfingers
  end

#!OML:ASF H:\charlestonDancing\Project 1\Capture day 1\Session 1\femaleDancer.ASF
:FULLY-SPECIFIED
:DEGREES
294
root -13.5296 17.5507 -2.79466 -188.81 161.361 -551.057
lowerback 11.4855 3.59566 11.026
upperback 2.36041 6.17569 1.64883
thorax -2.9484 3.00779 -5.22839
lowerneck 11.3486 11.8989 16.8716
upperneck -0.0154435 17.7634 -8.96228
head 0.488325 9.11211 -5.42429
rclavicle 6.85559e-014 -6.08281e-014
rhumerus -37.5812 17.9474 -89.8182
rradius 32.5664
rwrist 7.35611
rhand -18.7879 -32.752
rfingers 7.12502
rthumb 7.50984 -62.5987
lclavicle 6.85559e-014 -6.08281e-014
lhumerus -30.0409 17.5543 52.6348
lradius 79.6971
lwrist 28.6891
lhand -15.1632 33.1593
lfingers 7.12502
lthumb 11.0074 62.8507
rfemur -0.116264 -7.70649 34.8266
rtibia 26.5941
rfoot -20.1417 0.214284
rtoes -8.7902
lfemur -28.4334 4.01293 0.832331
ltibia 64.3842
lfoot 9.91127 -2.38634
ltoes -41.2034
295
root -13.5455 17.5564 -2.80061 -188.763 161.191 -550.821
lowerback 11.5708 3.58143 10.8507
upperback 2.36031 6.14396 1.5744
thorax -3.01113 2.98958 -5.21571
lowerneck 11.2537 11.892 16.8749
upperneck 0.0440668 17.7415 -8.99106
head 0.520871 9.10187 -5.42441
rclavicle -3.24019e-014 1.59028e-014
rhumerus -37.6472 16.8519 -89.0925
rradius 32.2479
rwrist 7.84136
rhand -18.7673 -32.3573
rfingers 7.12502
rthumb 7.52976 -62.2033
lclavicle -3.24019e-014 1.59028e-014
lhumerus -29.5384 17.3499 52.8728
lradius 79.6309
lwrist 28.6499
lhand -15.0871 33.2655
lfingers 7.12502
lthumb 11.0807 62.953
rfemur -0.137538 -7.6722 34.6482
rtibia 26.5954
rfoot -20.0842 0.025223
rtoes -8.88913
lfemur -28.4389 3.95432 0.597446
ltibia 64.2311
lfoot 10.1142 -2.24908
ltoes -40.5568
296
root -13.559 17.5643 -2.80443 -188.666 161.145 -550.51
lowerback 11.6229 3.59003 10.633
upperback 2.38783 6.12928 1.47611
thorax -3.02505 2.98404 -5.20192
lowerneck 11.1238 11.8914 16.9629
upperneck 0.129582 17.7332 -9.16737
head 0.589099 9.10251 -5.47347
rclavicle 9.487e-014 2.38542e-015
rhumerus -37.6106 15.9094 -88.4604
rradius 31.9088
rwrist 8.31656
rhand -18.6638 -32.2492
rfingers 7.12502
rthumb 7.62967 -62.0916
lclavicle 9.487e-014 2.38542e-015
lhumerus -29.1676 17.3042 53.0762
lradius 79.6106
lwrist 28.5399
lhand -15.0094 33.1109
lfingers 7.12502
lthumb 11.1557 62.7944
rfemur -0.158718 -7.53245 34.3959
rtibia 26.5898
rfoot -19.987 -0.135431
rtoes -8.85756
lfemur -28.3764 3.93462 0.295695
ltibia 64.0622
lfoot 10.1721 -2.16862
ltoes -40.4016
297
root -13.5697 17.57 -2.80824 -188.627 161.143 -550.376
lowerback 11.6444 3.5785 10.5851
upperback 2.44 6.10585 1.44667
thorax -2.98693 2.97697 -5.20329
lowerneck 10.9485 11.9401 17.042
upperneck 0.28018 17.7846 -9.40329
head 0.696389 9.13519 -5.52935
rclavicle 4.62671e-014 -1.39149e-014
rhumerus -37.4072 15.045 -87.8258
rradius 31.4514
rwrist 8.74485
rhand -18.852 -32.813
rfingers 7.12502
rthumb 7.44801 -62.6619
lclavicle 4.62671e-014 -1.39149e-014
lhumerus -28.8637 17.2594 53.2815
lradius 79.6066
lwrist 28.4451
lhand -15.081 32.9823
lfingers 7.12502
lthumb 11.0866 62.6695
rfemur -0.17508 -7.43777 34.3087
rtibia 26.5846
rfoot -19.9154 -0.240367
rtoes -8.86114
lfemur -28.3022 3.92308 0.19212
ltibia 63.8957
lfoot 10.1903 -2.2421
ltoes -40.6923
298
root -13.5815 17.5735 -2.81459 -188.61 161.086 -550.348
lowerback 11.6564 3.50612 10.6104
upperback 2.48642 6.01251 1.47032
thorax -2.95927 2.93396 -5.18127
lowerneck 10.9881 12.0346 17.0422
upperneck 0.222697 17.9154 -9.68714
head 0.716636 9.2072 -5.60978
rclavicle -1.34677e-014 -9.93923e-015
rhumerus -37.205 14.5228 -87.3027
rradius 31.0713
rwrist 8.93754
rhand -18.8826 -33.1701
rfingers 7.12502
rthumb 7.41849 -63.02
lclavicle -1.34677e-014 -9.93923e-015
lhumerus -28.6741 17.223 53.4411
lradius 79.669
lwrist 28.5048
lhand -15.2727 33.0225
lfingers 7.12502
lthumb 10.9017 62.7195
rfemur -0.214499 -7.365 34.3414
rtibia 26.5689
rfoot -19.87 -0.388893
rtoes -9.08048
lfemur -28.2997 3.89209 0.207077
ltibia 63.7373
lfoot 10.3229 -2.34909
ltoes -40.7304
299
root -13.5934 17.5805 -2.82096 -188.497 161.022 -550.169
lowerback 11.6226 3.43851 10.4883
upperback 2.53391 5.89989 1.45226
thorax -2.91911 2.88305 -5.11646
lowerneck 11.117 12.142 17.0417
upperneck 0.0524958 18.0731 -10.0188
head 0.697844 9.29304 -5.71397
rclavicle 5.57094e-014 -9.93923e-015
rhumerus -37.0711 14.3716 -86.9933
rradius 30.8386
rwrist 8.843
rhand -18.2967 -32.311
rfingers 7.12502
rthumb 7.98402 -62.1402
lclavicle 5.57094e-014 -9.93923e-015
lhumerus -28.4739 17.072 53.5448
lradius 79.6989
lwrist 28.7256
lhand -15.4955 33.2451
lfingers 7.12502
lthumb 10.6868 62.9533
rfemur -0.288579 -7.25808 34.2235
rtibia 26.5245
rfoot -19.7846 -0.522467
rtoes -9.22699
lfemur -28.3364 3.87004 0.0479465
ltibia 63.5807
lfoot 10.452 -2.43838
ltoes -40.8638
300
root -13.6015 17.5884 -2.82685 -188.376 160.923 -550.046
lowerback 11.5787 3.38994 10.4582
upperback 2.5485 5.82461 1.43436
thorax -2.89262 2.84802 -5.10645
lowerneck 11.1672 12.226 17.1634
upperneck 0.00323676 18.2069 -10.3695
head 0.737213 9.36933 -5.82907
rclavicle 2.44008e-014 3.85642e-014
rhumerus -36.9638 14.176 -86.7592
rradius 30.545
rwrist 8.94748
rhand -18.1256 -31.8506
rfingers 7.12502
rthumb 8.14907 -61.6735
lclavicle 2.44008e-014 3.85642e-014
lhumerus -28.2641 16.8147 53.6902
lradius 79.7276
lwrist 28.8746
lhand -15.5816 33.3479
lfingers 7.12502
lthumb 10.6037 63.0603
rfemur -0.399088 -7.2871 34.1199
rtibia 26.4934
rfoot -19.7281 -0.543407
rtoes -9.2032
lfemur -28.4049 3.83772 -0.0835453
ltibia 63.4363
lfoot 10.4518 -2.65034
ltoes -41.4848
301
root -13.6058 17.5945 -2.83155 -188.297 160.772 -550.002
lowerback 11.5323 3.34127 10.5559
upperback 2.5417 5.76601 1.4241
thorax -2.87259 2.81938 -5.16099
lowerneck 11.2762 12.2762 17.3089
upperneck -0.0943075 18.3064 -10.7078
head 0.74998 9.42859 -5.95226
rclavicle 9.4547e-014 -2.38542e-015
rhumerus -36.9541 13.9466 -86.5648
rradius 30.2983
rwrist 9.32776
rhand -18.9905 -32.4755
rfingers 7.12502
rthumb 7.31433 -62.329
lclavicle 9.4547e-014 -2.38542e-015
lhumerus -28.1819 16.8048 53.931
lradius 79.8645
lwrist 28.6868
lhand -15.4338 33.053
lfingers 7.12502
lthumb 10.7464 62.7581
rfemur -0.500415 -7.42485 34.0613
rtibia 26.4825
rfoot -19.7675 -0.5151
rtoes -9.19614
lfemur -28.4723 3.79244 -0.15937
ltibia 63.2982
lfoot 10.361 -3.0414
ltoes -42.6897
302
root -13.6089 17.6016 -2.83472 -188.185 160.633 -549.809
lowerback 11.4752 3.32179 10.5876
upperback 2.55737 5.73144 1.33142
thorax -2.81674 2.80605 -5.2663
lowerneck 11.4046 12.3261 17.4128
upperneck -0.278692 18.3992 -10.9924
head 0.724591 9.48157 -6.0603
rclavicle -2.18663e-014 -3.97569e-015
rhumerus -36.9216 13.6784 -86.4269
rradius 30.0534
rwrist 9.69211
rhand -19.7255 -32.0462
rfingers 7.12502
rthumb 6.60483 -61.9232
lclavicle -2.18663e-014 -3.97569e-015
lhumerus -27.9904 16.7514 54.1296
lradius 79.892
lwrist 28.4714
lhand -15.3193 32.7855
lfingers 7.12502
lthumb 10.8568 62.4849
rfemur -0.515104 -7.45138 33.8626
rtibia 26.3528
rfoot -19.7322 -0.541141
rtoes -9.01151
lfemur -28.4755 3.72707 -0.405547
ltibia 63.1192
lfoot 10.2822 -3.38017
ltoes -44.0317
303
root -13.6115 17.6091 -2.83839 -188.088 160.59 -549.622
lowerback 11.4695 3.32653 10.6381
upperback 2.57245 5.7382 1.25019
thorax -2.78248 2.81181 -5.37865
lowerneck 11.5014 12.4102 17.4599
upperneck -0.397365 18.5279 -11.221
head 0.718793 9.55209 -6.13734
rclavicle 2.88486e-014 1.19271e-015
rhumerus -36.8605 13.5277 -86.3262
rradius 29.8394
rwrist 10.1076
rhand -19.0264 -30.4891
rfingers 7.12502
rthumb 7.27971 -60.3439
lclavicle 2.88486e-014 1.19271e-015
lhumerus -27.6605 16.3302 54.2123
lradius 79.7058
lwrist 28.5006
lhand -15.2926 32.8954
lfingers 7.12502
lthumb 10.8825 62.5934
rfemur -0.501995 -7.35324 33.6905
rtibia 26.2074
rfoot -19.636 -0.598525
rtoes -8.74916
lfemur -28.4172 3.67348 -0.6293
ltibia 62.9298
lfoot 10.2607 -3.39483
ltoes -44.2964
304
root -13.613 17.6318 -2.84143 -188.045 160.597 -549.551
lowerback 11.5047 3.32201 10.7267
upperback 2.57663 5.74767 1.27172
thorax -2.7891 2.81574 -5.40828
lowerneck 11.6213 12.5109 17.4345
upperneck -0.450078 18.6767 -11.439
head 0.724871 9.63491 -6.19993
rclavicle 5.46409e-014 -2.20651e-014
rhumerus -36.878 13.6776 -86.2655
rradius 29.7752
rwrist 10.4881
rhand -18.2457 -29.7141
rfingers 7.12502
rthumb 8.03322 -59.5414
lclavicle 5.46409e-014 -2.20651e-014
lhumerus -27.5081 15.9866 54.3204
lradius 79.5819
lwrist 28.5135
lhand -15.0985 33.1362
lfingers 7.12502
lthumb 11.0697 62.8242
rfemur -0.44035 -7.29318 33.6221
rtibia 26.0309
rfoot -19.5474 -0.621696
rtoes -9.10192
lfemur -28.2751 3.64532 -0.734123
ltibia 62.6857
lfoot 10.2743 -3.17114
ltoes -43.6838
305
root -13.6137 17.6409 -2.84671 -187.961 160.55 -549.396
lowerback 11.5402 3.30828 10.71
upperback 2.58044 5.73137 1.2636
thorax -2.80819 2.80674 -5.40887
lowerneck 11.7254 12.6214 17.4171
upperneck -0.522289 18.8355 -11.6259
head 0.727034 9.72112 -6.25328
rclavicle 6.36608e-014 -3.18055e-014
rhumerus -36.8628 13.7482 -86.2329
rradius 29.7005
rwrist 10.7741
rhand -18.2182 -29.666
rfingers 7.12502
rthumb 8.05974 -59.4923
lclavicle 6.36608e-014 -3.18055e-014
lhumerus -27.4673 15.8038 54.4411
lradius 79.5966
lwrist 28.5251
lhand -15.1215 33.0367
lfingers 7.12502
lthumb 11.0476 62.726
rfemur -0.403831 -7.28533 33.4567
rtibia 25.8576
rfoot -19.4527 -0.633044
rtoes -9.65107
lfemur -28.2462 3.64211 -0.945793
ltibia 62.5081
lfoot 10.3298 -2.94825
ltoes -43.1045
